<?xml version="1.0" encoding="utf-8"?>
<svg version="1.1" xmlns:xlink="http://www.w3.org/1999/xlink" width="9px" height="12px" xmlns="http://www.w3.org/2000/svg">
  <g transform="matrix(1 0 0 1 -12 -60 )">
    <path d="M 8.84536082474227 0.721442885771542  C 8.94845360824742 0.801603206412824  9 0.893787575150299  9 0.997995991983968  C 9 1.10220440881763  8.94845360824742 1.19438877755511  8.84536082474227 1.27454909819639  L 2.7680412371134 6  L 8.84536082474227 10.7254509018036  C 8.94845360824742 10.8056112224449  9 10.8977955911824  9 11.002004008016  C 9 11.1062124248497  8.94845360824742 11.1983967935872  8.84536082474227 11.2785571142285  L 8.07216494845361 11.8797595190381  C 7.96907216494845 11.9599198396794  7.85051546391753 12  7.71649484536082 12  C 7.58247422680413 12  7.4639175257732 11.9599198396794  7.36082474226804 11.8797595190381  L 0.154639175257732 6.27655310621242  C 0.0515463917525774 6.19639278557114  0 6.10420841683367  0 6  C 0 5.89579158316633  0.0515463917525774 5.80360721442886  0.154639175257732 5.72344689378758  L 7.36082474226804 0.120240480961924  C 7.4639175257732 0.0400801603206409  7.58247422680413 0  7.71649484536082 0  C 7.85051546391753 0  7.96907216494845 0.0400801603206409  8.07216494845361 0.120240480961924  L 8.84536082474227 0.721442885771542  Z " fill-rule="nonzero" fill="#000000" stroke="none" transform="matrix(1 0 0 1 12 60 )" />
  </g>
</svg>